<svg width="48" height="48" viewBox="0 0 48 48" fill="none" xmlns="http://www.w3.org/2000/svg">
<rect width="48" height="48" rx="24" fill="#F1F5F9"/>
<path d="M32.5933 30C33.5148 30.6081 34 31.2979 34 32C34 32.7021 33.5148 33.3919 32.5933 34C31.6717 34.6081 30.3462 35.113 28.75 35.4641C27.1538 35.8152 25.3431 36 23.5 36C21.6569 36 19.8462 35.8152 18.25 35.4641C16.6538 35.113 15.3283 34.6081 14.4067 34C13.4852 33.3919 13 32.7021 13 32C13 31.2979 13.4852 30.6081 14.4067 30" stroke="#222222" stroke-linecap="round"/>
<path d="M33 21.2647C33 27.5914 25.758 31.8163 23.9201 32.7867C23.6555 32.9264 23.3445 32.9264 23.0799 32.7867C21.242 31.8163 14 27.5914 14 21.2647C14 15.7059 18.6031 12 23.5 12C28.5667 12 33 15.7059 33 21.2647Z" stroke="#222222"/>
<path d="M23.5 16.5C26.3073 16.5 28.5 18.5585 28.5 21C28.5 23.4415 26.3073 25.5 23.5 25.5C20.6927 25.5 18.5 23.4415 18.5 21C18.5 18.5585 20.6927 16.5 23.5 16.5Z" stroke="#222222"/>
</svg>
