<svg width="48" height="48" viewBox="0 0 48 48" fill="none" xmlns="http://www.w3.org/2000/svg">
<path d="M24 42V26M24 42L8.94 32.5875C8.48048 32.3003 8.25072 32.1567 8.12536 31.9305C8 31.7043 8 31.4334 8 30.8915V16M24 42L32 37L39.06 32.5875C39.5195 32.3003 39.7493 32.1567 39.8746 31.9305C40 31.7043 40 31.4334 40 30.8915V16M24 26L8 16M24 26L40 16M8 16L22.94 6.6625C23.4555 6.34033 23.7132 6.17925 24 6.17925C24.2868 6.17925 24.5445 6.34033 25.06 6.6625L40 16" stroke="#33363F" stroke-width="2" stroke-linejoin="round"/>
<path d="M31 29C31 29.5523 31.4477 30 32 30C32.5523 30 33 29.5523 33 29H32H31ZM31.8746 21.0695L32.7493 20.5847L31.8746 21.0695ZM16 11L15.47 11.848L30.53 21.2605L31.06 20.4125L31.59 19.5645L16.53 10.152L16 11ZM32 29H33V22.1085H32H31V29H32ZM31.06 20.4125L30.53 21.2605C30.7757 21.4141 30.9004 21.4932 30.9843 21.5575C31.0512 21.6089 31.027 21.6029 31 21.5542L31.8746 21.0695L32.7493 20.5847C32.5969 20.3098 32.3951 20.119 32.201 19.9702C32.0238 19.8344 31.8038 19.6981 31.59 19.5645L31.06 20.4125ZM32 22.1085H33C33 21.8564 33.0011 21.5976 32.9798 21.3753C32.9565 21.1319 32.9016 20.8596 32.7493 20.5847L31.8746 21.0695L31 21.5542C30.973 21.5056 30.9808 21.4818 30.9889 21.5659C30.9989 21.6711 31 21.8187 31 22.1085H32Z" fill="#33363F"/>
</svg>
