<svg width="48" height="48" viewBox="0 0 48 48" fill="none" xmlns="http://www.w3.org/2000/svg">
<rect width="48" height="48" rx="24" fill="#F1F5F9"/>
<path d="M15.6796 13.6537L16.6262 12.7071C17.0168 12.3166 17.6499 12.3166 18.0404 12.7071L21.9596 16.6262C22.3501 17.0168 22.3501 17.6499 21.9596 18.0404L20.3623 19.6377C20.1459 19.8541 20.0923 20.1846 20.2292 20.4583C21.8114 23.6227 24.3773 26.1886 27.5417 27.7708C27.8154 27.9077 28.146 27.8541 28.3623 27.6377L29.9596 26.0404C30.3501 25.6499 30.9832 25.6499 31.3738 26.0404L35.2929 29.9596C35.6834 30.3501 35.6834 30.9832 35.2929 31.3738L34.3463 32.3204C32.2349 34.4317 28.8924 34.6693 26.5037 32.8777L22.6286 29.9714C20.885 28.6638 19.3362 27.115 18.0286 25.3714L15.1223 21.4964C13.3307 19.1076 13.5683 15.7651 15.6796 13.6537Z" stroke="black"/>
</svg>
