{
  "accessors": [
    {
      "bufferView": 2,
      "componentType": 5126,
      "count": 2306,
      "max": [
        0.348378986120224,
        0.5146129727363586,
        -0.8858309984207153
      ],
      "min": [
        0.1047229990363121,
        -0.4728899896144867,
        -1.0
      ],
      "type": "VEC3"
    },
    {
      "bufferView": 2,
      "byteOffset": 27672,
      "componentType": 5126,
      "count": 2306,
      "max": [
        0.9268226623535156,
        0.9999997615814209,
        0.9999939799308777
      ],
      "min": [
        -0.9268242120742798,
        -0.9999996423721313,
        -0.9999939799308777
      ],
      "type": "VEC3"
    },
    {
      "bufferView": 3,
      "componentType": 5126,
      "count": 2306,
      "max": [
        1.0,
        0.9998137354850769,
        0.9999687671661377,
        1.0
      ],
      "min": [
        -1.0,
        -0.9999707937240601,
        -0.9995868802070618,
        1.0
      ],
      "type": "VEC4"
    },
    {
      "bufferView": 1,
      "componentType": 5126,
      "count": 2306,
      "max": [
        0.9764260053634644,
        0.9962220191955566
      ],
      "min": [
        0.0016270000487565994,
        0.016301000490784645
      ],
      "type": "VEC2"
    },
    {
      "bufferView": 0,
      "componentType": 5125,
      "count": 4152,
      "type": "SCALAR"
    },
    {
      "bufferView": 2,
      "byteOffset": 55344,
      "componentType": 5126,
      "count": 200,
      "max": [
        0.2547999918460846,
        0.4411270022392273,
        0.9929320216178894
      ],
      "min": [
        -0.25139299035072327,
        0.4252049922943115,
        0.9671990275382996
      ],
      "type": "VEC3"
    },
    {
      "bufferView": 2,
      "byteOffset": 57744,
      "componentType": 5126,
      "count": 200,
      "max": [
        0.981176495552063,
        1.0,
        0.9803868532180786
      ],
      "min": [
        -0.981176495552063,
        -1.0,
        -0.19311502575874329
      ],
      "type": "VEC3"
    },
    {
      "bufferView": 3,
      "byteOffset": 36896,
      "componentType": 5126,
      "count": 200,
      "max": [
        0.9997468590736389,
        0.21606586873531342,
        0.9808670282363892,
        1.0
      ],
      "min": [
        -0.19303804636001587,
        -0.16167865693569183,
        -0.9808706045150757,
        1.0
      ],
      "type": "VEC4"
    },
    {
      "bufferView": 1,
      "byteOffset": 18448,
      "componentType": 5126,
      "count": 200,
      "max": [
        0.9724540114402771,
        0.9842060208320618
      ],
      "min": [
        0.01734899915754795,
        0.03883900120854378
      ],
      "type": "VEC2"
    },
    {
      "bufferView": 0,
      "byteOffset": 16608,
      "componentType": 5125,
      "count": 312,
      "type": "SCALAR"
    },
    {
      "bufferView": 2,
      "byteOffset": 60144,
      "componentType": 5126,
      "count": 894,
      "max": [
        0.3932279944419861,
        0.4471310079097748,
        0.9963340163230896
      ],
      "min": [
        -0.3908360004425049,
        -0.46187299489974976,
        0.965025007724762
      ],
      "type": "VEC3"
    },
    {
      "bufferView": 2,
      "byteOffset": 70872,
      "componentType": 5126,
      "count": 894,
      "max": [
        1.0,
        1.0,
        1.0
      ],
      "min": [
        -1.0,
        -1.0,
        -1.0
      ],
      "type": "VEC3"
    },
    {
      "bufferView": 3,
      "byteOffset": 40096,
      "componentType": 5126,
      "count": 894,
      "max": [
        1.0,
        0.9997185468673706,
        1.0,
        1.0
      ],
      "min": [
        -1.0,
        -0.9999995827674866,
        -0.9942159652709961,
        -1.0
      ],
      "type": "VEC4"
    },
    {
      "bufferView": 1,
      "byteOffset": 20048,
      "componentType": 5126,
      "count": 894,
      "max": [
        0.9718369841575623,
        0.9919549822807312
      ],
      "min": [
        0.013914999552071095,
        0.011088999919593334
      ],
      "type": "VEC2"
    },
    {
      "bufferView": 0,
      "byteOffset": 17856,
      "componentType": 5125,
      "count": 1974,
      "type": "SCALAR"
    },
    {
      "bufferView": 2,
      "byteOffset": 81600,
      "componentType": 5126,
      "count": 842,
      "max": [
        0.3104749917984009,
        0.37079301476478577,
        1.0
      ],
      "min": [
        -0.3073819875717163,
        -0.3914560079574585,
        0.95871502161026
      ],
      "type": "VEC3"
    },
    {
      "bufferView": 2,
      "byteOffset": 91704,
      "componentType": 5126,
      "count": 842,
      "max": [
        1.0,
        1.0,
        1.0
      ],
      "min": [
        -1.0,
        -1.0,
        -0.21727509796619415
      ],
      "type": "VEC3"
    },
    {
      "bufferView": 3,
      "byteOffset": 54400,
      "componentType": 5126,
      "count": 842,
      "max": [
        0.9994365572929382,
        0.4597308039665222,
        0.9999992251396179,
        1.0
      ],
      "min": [
        -0.21707744896411896,
        -0.5042769312858582,
        -0.9999997615814209,
        1.0
      ],
      "type": "VEC4"
    },
    {
      "bufferView": 1,
      "byteOffset": 27200,
      "componentType": 5126,
      "count": 842,
      "max": [
        0.9834889769554138,
        0.978859007358551
      ],
      "min": [
        0.03438799828290939,
        0.018035000190138817
      ],
      "type": "VEC2"
    },
    {
      "bufferView": 0,
      "byteOffset": 25752,
      "componentType": 5125,
      "count": 1656,
      "type": "SCALAR"
    },
    {
      "bufferView": 2,
      "byteOffset": 101808,
      "componentType": 5126,
      "count": 2067,
      "max": [
        0.49279698729515076,
        0.47354599833488464,
        0.9856510162353516
      ],
      "min": [
        -0.49279698729515076,
        -0.5146129727363586,
        -0.9322360157966614
      ],
      "type": "VEC3"
    },
    {
      "bufferView": 2,
      "byteOffset": 126612,
      "componentType": 5126,
      "count": 2067,
      "max": [
        1.0,
        1.0,
        1.0
      ],
      "min": [
        -1.0,
        -1.0,
        -1.0
      ],
      "type": "VEC3"
    },
    {
      "bufferView": 3,
      "byteOffset": 67872,
      "componentType": 5126,
      "count": 2067,
      "max": [
        1.0,
        0.9999982714653015,
        1.0,
        1.0
      ],
      "min": [
        -1.0,
        -0.9999695420265198,
        -1.0,
        1.0
      ],
      "type": "VEC4"
    },
    {
      "bufferView": 1,
      "byteOffset": 33936,
      "componentType": 5126,
      "count": 2067,
      "max": [
        0.9659979939460754,
        0.9853649735450745
      ],
      "min": [
        0.020023999735713005,
        0.011282999999821186
      ],
      "type": "VEC2"
    },
    {
      "bufferView": 0,
      "byteOffset": 32376,
      "componentType": 5125,
      "count": 3984,
      "type": "SCALAR"
    },
    {
      "bufferView": 2,
      "byteOffset": 151416,
      "componentType": 5126,
      "count": 1084,
      "max": [
        0.48366600275039673,
        0.4593450129032135,
        0.9741219878196716
      ],
      "min": [
        -0.4752979874610901,
        -0.5075479745864868,
        -0.9203600287437439
      ],
      "type": "VEC3"
    },
    {
      "bufferView": 2,
      "byteOffset": 164424,
      "componentType": 5126,
      "count": 1084,
      "max": [
        1.0,
        1.0,
        1.0
      ],
      "min": [
        -1.0,
        -1.0,
        -1.0
      ],
      "type": "VEC3"
    },
    {
      "bufferView": 3,
      "byteOffset": 100944,
      "componentType": 5126,
      "count": 1084,
      "max": [
        1.0,
        0.9999423027038574,
        1.0,
        1.0
      ],
      "min": [
        -0.9999998807907104,
        -0.9999415278434753,
        -1.0,
        1.0
      ],
      "type": "VEC4"
    },
    {
      "bufferView": 1,
      "byteOffset": 50472,
      "componentType": 5126,
      "count": 1084,
      "max": [
        0.9901559948921204,
        0.9908369779586792
      ],
      "min": [
        0.0,
        0.0
      ],
      "type": "VEC2"
    },
    {
      "bufferView": 0,
      "byteOffset": 48312,
      "componentType": 5125,
      "count": 2304,
      "type": "SCALAR"
    },
    {
      "bufferView": 2,
      "byteOffset": 177432,
      "componentType": 5126,
      "count": 696,
      "max": [
        0.4620960056781769,
        0.45122799277305603,
        0.9758210182189941
      ],
      "min": [
        -0.4617370069026947,
        -0.4553300142288208,
        -0.9046030044555664
      ],
      "type": "VEC3"
    },
    {
      "bufferView": 2,
      "byteOffset": 185784,
      "componentType": 5126,
      "count": 696,
      "max": [
        1.0,
        1.0,
        1.0
      ],
      "min": [
        -1.0,
        -1.0,
        -1.0
      ],
      "type": "VEC3"
    },
    {
      "bufferView": 3,
      "byteOffset": 118288,
      "componentType": 5126,
      "count": 696,
      "max": [
        0.8235538601875305,
        1.0,
        0.9998587965965271,
        1.0
      ],
      "min": [
        -0.5887068510055542,
        -0.930908739566803,
        -0.9969959259033203,
        1.0
      ],
      "type": "VEC4"
    },
    {
      "bufferView": 1,
      "byteOffset": 59144,
      "componentType": 5126,
      "count": 696,
      "max": [
        0.9612730145454407,
        0.9849380254745483
      ],
      "min": [
        0.017697999253869057,
        0.016945000737905502
      ],
      "type": "VEC2"
    },
    {
      "bufferView": 0,
      "byteOffset": 57528,
      "componentType": 5125,
      "count": 1224,
      "type": "SCALAR"
    },
    {
      "bufferView": 2,
      "byteOffset": 194136,
      "componentType": 5126,
      "count": 2012,
      "max": [
        0.4365459978580475,
        0.45160600543022156,
        0.9308249950408936
      ],
      "min": [
        -0.4309070110321045,
        -0.4641669988632202,
        -0.8741409778594971
      ],
      "type": "VEC3"
    },
    {
      "bufferView": 2,
      "byteOffset": 218280,
      "componentType": 5126,
      "count": 2012,
      "max": [
        1.0,
        1.0,
        1.0
      ],
      "min": [
        -1.0,
        -1.0,
        -1.0
      ],
      "type": "VEC3"
    },
    {
      "bufferView": 3,
      "byteOffset": 129424,
      "componentType": 5126,
      "count": 2012,
      "max": [
        1.0,
        1.0,
        0.9999334216117859,
        1.0
      ],
      "min": [
        -0.7095428705215454,
        -1.0,
        -0.9999375343322754,
        1.0
      ],
      "type": "VEC4"
    },
    {
      "bufferView": 1,
      "byteOffset": 64712,
      "componentType": 5126,
      "count": 2012,
      "max": [
        0.9769200086593628,
        0.9444640278816223
      ],
      "min": [
        0.014406000263988972,
        0.09516900032758713
      ],
      "type": "VEC2"
    },
    {
      "bufferView": 0,
      "byteOffset": 62424,
      "componentType": 5125,
      "count": 3018,
      "type": "SCALAR"
    }
  ],
  "asset": {
    "extras": {
      "author": "Filipe Be Fx (https://sketchfab.com/joaoribeiro)",
      "license": "SKETCHFAB Standard (https://sketchfab.com/licenses)",
      "source": "https://sketchfab.com/3d-models/game-ready-prop-container-1ac4ef9238f14f66b6644e52a6f00e66",
      "title": "Game ready prop container"
    },
    "generator": "Sketchfab-16.35.0",
    "version": "2.0"
  },
  "bufferViews": [
    {
      "buffer": 0,
      "byteLength": 74496,
      "name": "floatBufferViews",
      "target": 34963
    },
    {
      "buffer": 0,
      "byteLength": 80808,
      "byteOffset": 74496,
      "byteStride": 8,
      "name": "floatBufferViews",
      "target": 34962
    },
    {
      "buffer": 0,
      "byteLength": 242424,
      "byteOffset": 155304,
      "byteStride": 12,
      "name": "floatBufferViews",
      "target": 34962
    },
    {
      "buffer": 0,
      "byteLength": 161616,
      "byteOffset": 397728,
      "byteStride": 16,
      "name": "floatBufferViews",
      "target": 34962
    }
  ],
  "buffers": [
    {
      "byteLength": 559344,
      "uri": "scene.bin"
    }
  ],
  "extensionsUsed": [
    "KHR_materials_specular"
  ],
  "images": [
    {
      "uri": "textures/aiStandard9SG_baseColor.jpeg"
    },
    {
      "uri": "textures/aiStandard9SG_metallicRoughness.png"
    },
    {
      "uri": "textures/aiStandard9SG_normal.png"
    },
    {
      "uri": "textures/aiStandard6SG_baseColor.jpeg"
    },
    {
      "uri": "textures/aiStandard6SG_metallicRoughness.png"
    },
    {
      "uri": "textures/aiStandard6SG_normal.png"
    },
    {
      "uri": "textures/aiStandard2SG_baseColor.jpeg"
    },
    {
      "uri": "textures/aiStandard2SG_metallicRoughness.png"
    },
    {
      "uri": "textures/aiStandard2SG_normal.png"
    },
    {
      "uri": "textures/aiStandard3SG_baseColor.jpeg"
    },
    {
      "uri": "textures/aiStandard3SG_metallicRoughness.png"
    },
    {
      "uri": "textures/aiStandard3SG_normal.png"
    },
    {
      "uri": "textures/aiStandard10SG_baseColor.jpeg"
    },
    {
      "uri": "textures/aiStandard10SG_metallicRoughness.png"
    },
    {
      "uri": "textures/aiStandard10SG_normal.png"
    },
    {
      "uri": "textures/aiStandard5SG_baseColor.jpeg"
    },
    {
      "uri": "textures/aiStandard5SG_metallicRoughness.png"
    },
    {
      "uri": "textures/aiStandard5SG_normal.png"
    },
    {
      "uri": "textures/aiStandard11SG_baseColor.jpeg"
    },
    {
      "uri": "textures/aiStandard11SG_metallicRoughness.png"
    },
    {
      "uri": "textures/aiStandard11SG_normal.png"
    },
    {
      "uri": "textures/aiStandard8SG_baseColor.jpeg"
    },
    {
      "uri": "textures/aiStandard8SG_metallicRoughness.png"
    },
    {
      "uri": "textures/aiStandard8SG_normal.png"
    }
  ],
  "materials": [
    {
      "doubleSided": true,
      "name": "aiStandard9SG",
      "normalTexture": {
        "index": 2
      },
      "occlusionTexture": {
        "index": 1
      },
      "pbrMetallicRoughness": {
        "baseColorTexture": {
          "index": 0
        },
        "metallicRoughnessTexture": {
          "index": 1
        }
      }
    },
    {
      "doubleSided": true,
      "name": "aiStandard6SG",
      "normalTexture": {
        "index": 5
      },
      "occlusionTexture": {
        "index": 4
      },
      "pbrMetallicRoughness": {
        "baseColorTexture": {
          "index": 3
        },
        "metallicRoughnessTexture": {
          "index": 4
        }
      }
    },
    {
      "doubleSided": true,
      "name": "aiStandard2SG",
      "normalTexture": {
        "index": 8
      },
      "occlusionTexture": {
        "index": 7
      },
      "pbrMetallicRoughness": {
        "baseColorTexture": {
          "index": 6
        },
        "metallicRoughnessTexture": {
          "index": 7
        }
      }
    },
    {
      "doubleSided": true,
      "extensions": {
        "KHR_materials_specular": {
          "specularColorFactor": [
            1.0,
            1.0,
            1.0
          ],
          "specularFactor": 1.0
        }
      },
      "name": "aiStandard3SG",
      "normalTexture": {
        "index": 11
      },
      "pbrMetallicRoughness": {
        "baseColorTexture": {
          "index": 9
        },
        "metallicRoughnessTexture": {
          "index": 10
        }
      }
    },
    {
      "doubleSided": true,
      "name": "aiStandard10SG",
      "normalTexture": {
        "index": 14
      },
      "occlusionTexture": {
        "index": 13
      },
      "pbrMetallicRoughness": {
        "baseColorTexture": {
          "index": 12
        },
        "metallicRoughnessTexture": {
          "index": 13
        }
      }
    },
    {
      "doubleSided": true,
      "name": "aiStandard5SG",
      "normalTexture": {
        "index": 17
      },
      "occlusionTexture": {
        "index": 16
      },
      "pbrMetallicRoughness": {
        "baseColorTexture": {
          "index": 15
        },
        "metallicRoughnessTexture": {
          "index": 16
        }
      }
    },
    {
      "doubleSided": true,
      "name": "aiStandard11SG",
      "normalTexture": {
        "index": 20
      },
      "occlusionTexture": {
        "index": 19
      },
      "pbrMetallicRoughness": {
        "baseColorTexture": {
          "index": 18
        },
        "metallicRoughnessTexture": {
          "index": 19
        }
      }
    },
    {
      "doubleSided": true,
      "name": "aiStandard8SG",
      "normalTexture": {
        "index": 23
      },
      "occlusionTexture": {
        "index": 22
      },
      "pbrMetallicRoughness": {
        "baseColorTexture": {
          "index": 21
        },
        "metallicRoughnessTexture": {
          "index": 22
        }
      }
    }
  ],
  "meshes": [
    {
      "name": "defaultMaterial",
      "primitives": [
        {
          "attributes": {
            "NORMAL": 1,
            "POSITION": 0,
            "TANGENT": 2,
            "TEXCOORD_0": 3
          },
          "indices": 4,
          "material": 7,
          "mode": 4
        }
      ]
    },
    {
      "name": "defaultMaterial",
      "primitives": [
        {
          "attributes": {
            "NORMAL": 6,
            "POSITION": 5,
            "TANGENT": 7,
            "TEXCOORD_0": 8
          },
          "indices": 9,
          "material": 6,
          "mode": 4
        }
      ]
    },
    {
      "name": "defaultMaterial",
      "primitives": [
        {
          "attributes": {
            "NORMAL": 11,
            "POSITION": 10,
            "TANGENT": 12,
            "TEXCOORD_0": 13
          },
          "indices": 14,
          "material": 5,
          "mode": 4
        }
      ]
    },
    {
      "name": "defaultMaterial",
      "primitives": [
        {
          "attributes": {
            "NORMAL": 16,
            "POSITION": 15,
            "TANGENT": 17,
            "TEXCOORD_0": 18
          },
          "indices": 19,
          "material": 4,
          "mode": 4
        }
      ]
    },
    {
      "name": "defaultMaterial",
      "primitives": [
        {
          "attributes": {
            "NORMAL": 21,
            "POSITION": 20,
            "TANGENT": 22,
            "TEXCOORD_0": 23
          },
          "indices": 24,
          "material": 3,
          "mode": 4
        }
      ]
    },
    {
      "name": "defaultMaterial",
      "primitives": [
        {
          "attributes": {
            "NORMAL": 26,
            "POSITION": 25,
            "TANGENT": 27,
            "TEXCOORD_0": 28
          },
          "indices": 29,
          "material": 2,
          "mode": 4
        }
      ]
    },
    {
      "name": "defaultMaterial",
      "primitives": [
        {
          "attributes": {
            "NORMAL": 31,
            "POSITION": 30,
            "TANGENT": 32,
            "TEXCOORD_0": 33
          },
          "indices": 34,
          "material": 1,
          "mode": 4
        }
      ]
    },
    {
      "name": "defaultMaterial",
      "primitives": [
        {
          "attributes": {
            "NORMAL": 36,
            "POSITION": 35,
            "TANGENT": 37,
            "TEXCOORD_0": 38
          },
          "indices": 39,
          "material": 0,
          "mode": 4
        }
      ]
    }
  ],
  "nodes": [
    {
      "children": [
        1
      ],
      "matrix": [
        0.9974228739738464,
        -1.5930941078038452e-17,
        0.0717465803027153,
        0.0,
        0.0717465803027153,
        2.2147236799471202e-16,
        -0.9974228739738464,
        0.0,
        0.0,
        1.0,
        2.220446049250313e-16,
        0.0,
        0.0,
        0.0,
        0.0,
        1.0
      ],
      "name": "Sketchfab_model"
    },
    {
      "children": [
        2,
        4,
        6,
        8,
        10,
        12,
        14,
        16
      ],
      "matrix": [
        1.0,
        0.0,
        0.0,
        0.0,
        0.0,
        -4.371139006309477e-08,
        0.999999999999999,
        0.0,
        0.0,
        -0.999999999999999,
        -4.371139006309477e-08,
        0.0,
        0.0,
        0.0,
        0.0,
        1.0
      ],
      "name": "Collada visual scene group"
    },
    {
      "children": [
        3
      ],
      "name": "g"
    },
    {
      "mesh": 0,
      "name": "defaultMaterial"
    },
    {
      "children": [
        5
      ],
      "name": "g"
    },
    {
      "mesh": 1,
      "name": "defaultMaterial"
    },
    {
      "children": [
        7
      ],
      "name": "g"
    },
    {
      "mesh": 2,
      "name": "defaultMaterial"
    },
    {
      "children": [
        9
      ],
      "name": "g"
    },
    {
      "mesh": 3,
      "name": "defaultMaterial"
    },
    {
      "children": [
        11
      ],
      "name": "g"
    },
    {
      "mesh": 4,
      "name": "defaultMaterial"
    },
    {
      "children": [
        13
      ],
      "name": "g"
    },
    {
      "mesh": 5,
      "name": "defaultMaterial"
    },
    {
      "children": [
        15
      ],
      "name": "g"
    },
    {
      "mesh": 6,
      "name": "defaultMaterial"
    },
    {
      "children": [
        17
      ],
      "name": "g"
    },
    {
      "mesh": 7,
      "name": "defaultMaterial"
    }
  ],
  "samplers": [
    {
      "magFilter": 9729,
      "minFilter": 9987,
      "wrapS": 10497,
      "wrapT": 10497
    }
  ],
  "scene": 0,
  "scenes": [
    {
      "name": "Sketchfab_Scene",
      "nodes": [
        0
      ]
    }
  ],
  "textures": [
    {
      "sampler": 0,
      "source": 0
    },
    {
      "sampler": 0,
      "source": 1
    },
    {
      "sampler": 0,
      "source": 2
    },
    {
      "sampler": 0,
      "source": 3
    },
    {
      "sampler": 0,
      "source": 4
    },
    {
      "sampler": 0,
      "source": 5
    },
    {
      "sampler": 0,
      "source": 6
    },
    {
      "sampler": 0,
      "source": 7
    },
    {
      "sampler": 0,
      "source": 8
    },
    {
      "sampler": 0,
      "source": 9
    },
    {
      "sampler": 0,
      "source": 10
    },
    {
      "sampler": 0,
      "source": 11
    },
    {
      "sampler": 0,
      "source": 12
    },
    {
      "sampler": 0,
      "source": 13
    },
    {
      "sampler": 0,
      "source": 14
    },
    {
      "sampler": 0,
      "source": 15
    },
    {
      "sampler": 0,
      "source": 16
    },
    {
      "sampler": 0,
      "source": 17
    },
    {
      "sampler": 0,
      "source": 18
    },
    {
      "sampler": 0,
      "source": 19
    },
    {
      "sampler": 0,
      "source": 20
    },
    {
      "sampler": 0,
      "source": 21
    },
    {
      "sampler": 0,
      "source": 22
    },
    {
      "sampler": 0,
      "source": 23
    }
  ]
}
