{"asset":{"version":"2.0","generator":"gltfpack 1.0","extras":{"author":"Filipe Be Fx (https://sketchfab.com/joaoribeiro)","license":"SKETCHFAB Standard (https://sketchfab.com/licenses)","source":"https://sketchfab.com/3d-models/game-ready-prop-container-1ac4ef9238f14f66b6644e52a6f00e66","title":"Game ready prop container"}},"extensionsUsed":["KHR_mesh_quantization","EXT_meshopt_compression","KHR_texture_transform","KHR_materials_specular"],"extensionsRequired":["KHR_mesh_quantization","EXT_meshopt_compression"],"buffers":[{"uri":"scene.bin","byteLength":94164},{"byteLength":236708,"extensions":{"EXT_meshopt_compression":{"fallback":true}}}],"bufferViews":[{"buffer":1,"byteOffset":0,"byteLength":39892,"byteStride":4,"target":34962,"extensions":{"EXT_meshopt_compression":{"buffer":0,"byteOffset":0,"byteLength":9252,"byteStride":4,"mode":"ATTRIBUTES","filter":"OCTAHEDRAL","count":9973}}},{"buffer":1,"byteOffset":39892,"byteLength":79784,"byteStride":8,"target":34962,"extensions":{"EXT_meshopt_compression":{"buffer":0,"byteOffset":9252,"byteLength":37535,"byteStride":8,"mode":"ATTRIBUTES","count":9973}}},{"buffer":1,"byteOffset":119676,"byteLength":39892,"byteStride":4,"target":34962,"extensions":{"EXT_meshopt_compression":{"buffer":0,"byteOffset":46788,"byteLength":13785,"byteStride":4,"mode":"ATTRIBUTES","filter":"OCTAHEDRAL","count":9973}}},{"buffer":1,"byteOffset":159568,"byteLength":39892,"byteStride":4,"target":34962,"extensions":{"EXT_meshopt_compression":{"buffer":0,"byteOffset":60576,"byteLength":27160,"byteStride":4,"mode":"ATTRIBUTES","count":9973}}},{"buffer":1,"byteOffset":199460,"byteLength":37248,"target":34963,"extensions":{"EXT_meshopt_compression":{"buffer":0,"byteOffset":87736,"byteLength":6427,"byteStride":2,"mode":"TRIANGLES","count":18624}}}],"accessors":[{"bufferView":0,"byteOffset":0,"componentType":5120,"count":2289,"type":"VEC3","normalized":true},{"bufferView":1,"byteOffset":0,"componentType":5123,"count":2289,"type":"VEC3","min":[5973,341,0],"max":[7974,8409,1044]},{"bufferView":2,"byteOffset":0,"componentType":5120,"count":2289,"type":"VEC4","normalized":true},{"bufferView":3,"byteOffset":0,"componentType":5123,"count":2289,"type":"VEC2","normalized":true},{"bufferView":4,"byteOffset":0,"componentType":5123,"count":4152,"type":"SCALAR"},{"bufferView":0,"byteOffset":9156,"componentType":5120,"count":200,"type":"VEC3","normalized":true},{"bufferView":1,"byteOffset":18312,"componentType":5123,"count":200,"type":"VEC3","min":[1978,7678,15796],"max":[6103,7808,16293]},{"bufferView":2,"byteOffset":9156,"componentType":5120,"count":200,"type":"VEC4","normalized":true},{"bufferView":3,"byteOffset":9156,"componentType":5123,"count":200,"type":"VEC2","normalized":true},{"bufferView":4,"byteOffset":8304,"componentType":5123,"count":312,"type":"SCALAR"},{"bufferView":0,"byteOffset":9956,"componentType":5120,"count":861,"type":"VEC3","normalized":true},{"bufferView":1,"byteOffset":19912,"componentType":5123,"count":861,"type":"VEC3","min":[834,431,15698],"max":[7223,7857,16367]},{"bufferView":2,"byteOffset":9956,"componentType":5120,"count":861,"type":"VEC4","normalized":true},{"bufferView":3,"byteOffset":9956,"componentType":5123,"count":861,"type":"VEC2","normalized":true},{"bufferView":4,"byteOffset":8928,"componentType":5123,"count":1974,"type":"SCALAR"},{"bufferView":0,"byteOffset":13400,"componentType":5120,"count":842,"type":"VEC3","normalized":true},{"bufferView":1,"byteOffset":26800,"componentType":5123,"count":842,"type":"VEC3","min":[1517,1006,15694],"max":[6562,7234,16376]},{"bufferView":2,"byteOffset":13400,"componentType":5120,"count":842,"type":"VEC4","normalized":true},{"bufferView":3,"byteOffset":13400,"componentType":5123,"count":842,"type":"VEC2","normalized":true},{"bufferView":4,"byteOffset":12876,"componentType":5123,"count":1656,"type":"SCALAR"},{"bufferView":0,"byteOffset":16768,"componentType":5120,"count":2048,"type":"VEC3","normalized":true},{"bufferView":1,"byteOffset":33536,"componentType":5123,"count":2048,"type":"VEC3","min":[0,0,177],"max":[9156,8073,16383]},{"bufferView":2,"byteOffset":16768,"componentType":5120,"count":2048,"type":"VEC4","normalized":true},{"bufferView":3,"byteOffset":16768,"componentType":5123,"count":2048,"type":"VEC2","normalized":true},{"bufferView":4,"byteOffset":16188,"componentType":5123,"count":3984,"type":"SCALAR"},{"bufferView":0,"byteOffset":24960,"componentType":5120,"count":1073,"type":"VEC3","normalized":true},{"bufferView":1,"byteOffset":49920,"componentType":5123,"count":1073,"type":"VEC3","min":[149,58,284],"max":[9074,7957,16284]},{"bufferView":2,"byteOffset":24960,"componentType":5120,"count":1073,"type":"VEC4","normalized":true},{"bufferView":3,"byteOffset":24960,"componentType":5123,"count":1073,"type":"VEC2","normalized":true},{"bufferView":4,"byteOffset":24156,"componentType":5123,"count":2304,"type":"SCALAR"},{"bufferView":0,"byteOffset":29252,"componentType":5120,"count":648,"type":"VEC3","normalized":true},{"bufferView":1,"byteOffset":58504,"componentType":5123,"count":648,"type":"VEC3","min":[268,484,420],"max":[8889,7891,16157]},{"bufferView":2,"byteOffset":29252,"componentType":5120,"count":648,"type":"VEC4","normalized":true},{"bufferView":3,"byteOffset":29252,"componentType":5123,"count":648,"type":"VEC2","normalized":true},{"bufferView":4,"byteOffset":28764,"componentType":5123,"count":1224,"type":"SCALAR"},{"bufferView":0,"byteOffset":31844,"componentType":5120,"count":2012,"type":"VEC3","normalized":true},{"bufferView":1,"byteOffset":63688,"componentType":5123,"count":2012,"type":"VEC3","min":[536,412,686],"max":[8647,7894,15902]},{"bufferView":2,"byteOffset":31844,"componentType":5120,"count":2012,"type":"VEC4","normalized":true},{"bufferView":3,"byteOffset":31844,"componentType":5123,"count":2012,"type":"VEC2","normalized":true},{"bufferView":4,"byteOffset":31212,"componentType":5123,"count":3018,"type":"SCALAR"}],"samplers":[{"magFilter":9729,"minFilter":9987}],"images":[{"uri":"aiStandard9SG_baseColor.jpg"},{"uri":"aiStandard9SG_metallicRoughness.png"},{"uri":"aiStandard9SG_normal.png"},{"uri":"aiStandard6SG_baseColor.jpg"},{"uri":"aiStandard6SG_metallicRoughness.png"},{"uri":"aiStandard6SG_normal.png"},{"uri":"aiStandard2SG_baseColor.jpg"},{"uri":"aiStandard2SG_metallicRoughness.png"},{"uri":"aiStandard2SG_normal.png"},{"uri":"aiStandard3SG_baseColor.jpg"},{"uri":"aiStandard3SG_metallicRoughness.png"},{"uri":"aiStandard3SG_normal.png"},{"uri":"aiStandard10SG_baseColor.jpg"},{"uri":"aiStandard10SG_metallicRoughness.png"},{"uri":"aiStandard10SG_normal.png"},{"uri":"aiStandard5SG_baseColor.jpg"},{"uri":"aiStandard5SG_metallicRoughness.png"},{"uri":"aiStandard5SG_normal.png"},{"uri":"aiStandard11SG_baseColor.jpg"},{"uri":"aiStandard11SG_metallicRoughness.png"},{"uri":"aiStandard11SG_normal.png"},{"uri":"aiStandard8SG_baseColor.jpg"},{"uri":"aiStandard8SG_metallicRoughness.png"},{"uri":"aiStandard8SG_normal.png"}],"textures":[{"sampler":0,"source":0},{"sampler":0,"source":1},{"sampler":0,"source":2},{"sampler":0,"source":3},{"sampler":0,"source":4},{"sampler":0,"source":5},{"sampler":0,"source":6},{"sampler":0,"source":7},{"sampler":0,"source":8},{"sampler":0,"source":9},{"sampler":0,"source":10},{"sampler":0,"source":11},{"sampler":0,"source":12},{"sampler":0,"source":13},{"sampler":0,"source":14},{"sampler":0,"source":15},{"sampler":0,"source":16},{"sampler":0,"source":17},{"sampler":0,"source":18},{"sampler":0,"source":19},{"sampler":0,"source":20},{"sampler":0,"source":21},{"sampler":0,"source":22},{"sampler":0,"source":23}],"materials":[{"name":"aiStandard9SG","pbrMetallicRoughness":{"baseColorTexture":{"index":0,"extensions":{"KHR_texture_transform":{"offset":[0.0144060003,0.0951690003],"scale":[15.4037495,13.5918322]}}},"metallicRoughnessTexture":{"index":1,"extensions":{"KHR_texture_transform":{"offset":[0.0144060003,0.0951690003],"scale":[15.4037495,13.5918322]}}}},"normalTexture":{"index":2,"extensions":{"KHR_texture_transform":{"offset":[0.0144060003,0.0951690003],"scale":[15.4037495,13.5918322]}}},"occlusionTexture":{"index":1,"extensions":{"KHR_texture_transform":{"offset":[0.0144060003,0.0951690003],"scale":[15.4037495,13.5918322]}}},"doubleSided":true},{"name":"aiStandard6SG","pbrMetallicRoughness":{"baseColorTexture":{"index":3,"extensions":{"KHR_texture_transform":{"offset":[0.0176979993,0.0169450007],"scale":[15.1006565,15.4914341]}}},"metallicRoughnessTexture":{"index":4,"extensions":{"KHR_texture_transform":{"offset":[0.0176979993,0.0169450007],"scale":[15.1006565,15.4914341]}}}},"normalTexture":{"index":5,"extensions":{"KHR_texture_transform":{"offset":[0.0176979993,0.0169450007],"scale":[15.1006565,15.4914341]}}},"occlusionTexture":{"index":4,"extensions":{"KHR_texture_transform":{"offset":[0.0176979993,0.0169450007],"scale":[15.1006565,15.4914341]}}},"doubleSided":true},{"name":"aiStandard2SG","pbrMetallicRoughness":{"baseColorTexture":{"index":6,"extensions":{"KHR_texture_transform":{"offset":[0,0],"scale":[15.8461227,15.8570204]}}},"metallicRoughnessTexture":{"index":7,"extensions":{"KHR_texture_transform":{"offset":[0,0],"scale":[15.8461227,15.8570204]}}}},"normalTexture":{"index":8,"extensions":{"KHR_texture_transform":{"offset":[0,0],"scale":[15.8461227,15.8570204]}}},"occlusionTexture":{"index":7,"extensions":{"KHR_texture_transform":{"offset":[0,0],"scale":[15.8461227,15.8570204]}}},"doubleSided":true},{"name":"aiStandard3SG","pbrMetallicRoughness":{"baseColorTexture":{"index":9,"extensions":{"KHR_texture_transform":{"offset":[0.0200239997,0.011283],"scale":[15.1390495,15.5888805]}}},"metallicRoughnessTexture":{"index":10,"extensions":{"KHR_texture_transform":{"offset":[0.0200239997,0.011283],"scale":[15.1390495,15.5888805]}}}},"normalTexture":{"index":11,"extensions":{"KHR_texture_transform":{"offset":[0.0200239997,0.011283],"scale":[15.1390495,15.5888805]}}},"doubleSided":true,"extensions":{"KHR_materials_specular":{}}},{"name":"aiStandard10SG","pbrMetallicRoughness":{"baseColorTexture":{"index":12,"extensions":{"KHR_texture_transform":{"offset":[0.0343879983,0.0180350002],"scale":[15.1890917,15.3767033]}}},"metallicRoughnessTexture":{"index":13,"extensions":{"KHR_texture_transform":{"offset":[0.0343879983,0.0180350002],"scale":[15.1890917,15.3767033]}}}},"normalTexture":{"index":14,"extensions":{"KHR_texture_transform":{"offset":[0.0343879983,0.0180350002],"scale":[15.1890917,15.3767033]}}},"occlusionTexture":{"index":13,"extensions":{"KHR_texture_transform":{"offset":[0.0343879983,0.0180350002],"scale":[15.1890917,15.3767033]}}},"doubleSided":true},{"name":"aiStandard5SG","pbrMetallicRoughness":{"baseColorTexture":{"index":15,"extensions":{"KHR_texture_transform":{"offset":[0.0139149996,0.0110889999],"scale":[15.3302612,15.6974487]}}},"metallicRoughnessTexture":{"index":16,"extensions":{"KHR_texture_transform":{"offset":[0.0139149996,0.0110889999],"scale":[15.3302612,15.6974487]}}}},"normalTexture":{"index":17,"extensions":{"KHR_texture_transform":{"offset":[0.0139149996,0.0110889999],"scale":[15.3302612,15.6974487]}}},"occlusionTexture":{"index":16,"extensions":{"KHR_texture_transform":{"offset":[0.0139149996,0.0110889999],"scale":[15.3302612,15.6974487]}}},"doubleSided":true},{"name":"aiStandard11SG","pbrMetallicRoughness":{"baseColorTexture":{"index":18,"extensions":{"KHR_texture_transform":{"offset":[0.0173489992,0.0388390012],"scale":[15.2851782,15.1293354]}}},"metallicRoughnessTexture":{"index":19,"extensions":{"KHR_texture_transform":{"offset":[0.0173489992,0.0388390012],"scale":[15.2851782,15.1293354]}}}},"normalTexture":{"index":20,"extensions":{"KHR_texture_transform":{"offset":[0.0173489992,0.0388390012],"scale":[15.2851782,15.1293354]}}},"occlusionTexture":{"index":19,"extensions":{"KHR_texture_transform":{"offset":[0.0173489992,0.0388390012],"scale":[15.2851782,15.1293354]}}},"doubleSided":true},{"name":"aiStandard8SG","pbrMetallicRoughness":{"baseColorTexture":{"index":21,"extensions":{"KHR_texture_transform":{"offset":[0.00162700005,0.0163010005],"scale":[15.6003542,15.6823263]}}},"metallicRoughnessTexture":{"index":22,"extensions":{"KHR_texture_transform":{"offset":[0.00162700005,0.0163010005],"scale":[15.6003542,15.6823263]}}}},"normalTexture":{"index":23,"extensions":{"KHR_texture_transform":{"offset":[0.00162700005,0.0163010005],"scale":[15.6003542,15.6823263]}}},"occlusionTexture":{"index":22,"extensions":{"KHR_texture_transform":{"offset":[0.00162700005,0.0163010005],"scale":[15.6003542,15.6823263]}}},"doubleSided":true}],"meshes":[{"primitives":[{"attributes":{"NORMAL":0,"POSITION":1,"TANGENT":2,"TEXCOORD_0":3},"indices":4,"material":7},{"attributes":{"NORMAL":5,"POSITION":6,"TANGENT":7,"TEXCOORD_0":8},"indices":9,"material":6},{"attributes":{"NORMAL":10,"POSITION":11,"TANGENT":12,"TEXCOORD_0":13},"indices":14,"material":5},{"attributes":{"NORMAL":15,"POSITION":16,"TANGENT":17,"TEXCOORD_0":18},"indices":19,"material":4},{"attributes":{"NORMAL":20,"POSITION":21,"TANGENT":22,"TEXCOORD_0":23},"indices":24,"material":3},{"attributes":{"NORMAL":25,"POSITION":26,"TANGENT":27,"TEXCOORD_0":28},"indices":29,"material":2},{"attributes":{"NORMAL":30,"POSITION":31,"TANGENT":32,"TEXCOORD_0":33},"indices":34,"material":1},{"attributes":{"NORMAL":35,"POSITION":36,"TANGENT":37,"TEXCOORD_0":38},"indices":39,"material":0}]}],"nodes":[{"mesh":0,"translation":[-0.562244058,-0.514613032,-0.986822128],"scale":[0.000122400626,0.000122400626,0.000122400626]}],"scenes":[{"name":"Sketchfab_Scene","nodes":[0]}],"scene":0}