{"asset":{"version":"2.0","generator":"gltfpack 1.0","extras":{"author":"Dmitriy Nikonov (https://sketchfab.com/dimanikonov)","license":"CC-BY-4.0 (http://creativecommons.org/licenses/by/4.0/)","source":"https://sketchfab.com/3d-models/low-poly-person-bfe451f06bba4a6baa4bae9f4b0b112e","title":"Low Poly Person"}},"extensionsUsed":["KHR_mesh_quantization","EXT_meshopt_compression","KHR_texture_transform","KHR_materials_specular"],"extensionsRequired":["KHR_mesh_quantization","EXT_meshopt_compression"],"buffers":[{"uri":"scene.bin","byteLength":52568},{"byteLength":111552,"extensions":{"EXT_meshopt_compression":{"fallback":true}}}],"bufferViews":[{"buffer":1,"byteOffset":0,"byteLength":24768,"byteStride":4,"target":34962,"extensions":{"EXT_meshopt_compression":{"buffer":0,"byteOffset":0,"byteLength":7490,"byteStride":4,"mode":"ATTRIBUTES","filter":"OCTAHEDRAL","count":6192}}},{"buffer":1,"byteOffset":24768,"byteLength":49536,"byteStride":8,"target":34962,"extensions":{"EXT_meshopt_compression":{"buffer":0,"byteOffset":7492,"byteLength":27857,"byteStride":8,"mode":"ATTRIBUTES","count":6192}}},{"buffer":1,"byteOffset":74304,"byteLength":24768,"byteStride":4,"target":34962,"extensions":{"EXT_meshopt_compression":{"buffer":0,"byteOffset":35352,"byteLength":15115,"byteStride":4,"mode":"ATTRIBUTES","count":6192}}},{"buffer":1,"byteOffset":99072,"byteLength":12480,"target":34963,"extensions":{"EXT_meshopt_compression":{"buffer":0,"byteOffset":50468,"byteLength":2098,"byteStride":2,"mode":"TRIANGLES","count":6240}}}],"accessors":[{"bufferView":0,"byteOffset":0,"componentType":5120,"count":6192,"type":"VEC3","normalized":true},{"bufferView":1,"byteOffset":0,"componentType":5123,"count":6192,"type":"VEC3","min":[0,0,0],"max":[4350,16383,3288]},{"bufferView":2,"byteOffset":0,"componentType":5123,"count":6192,"type":"VEC2","normalized":true},{"bufferView":3,"byteOffset":0,"componentType":5123,"count":6240,"type":"SCALAR"}],"samplers":[{"magFilter":9729,"minFilter":9987}],"images":[{"uri":"bake_baseColor.png"}],"textures":[{"sampler":0,"source":0}],"materials":[{"name":"bake","pbrMetallicRoughness":{"baseColorTexture":{"index":0,"extensions":{"KHR_texture_transform":{"offset":[0.0316785425,0.0228202194],"scale":[14.1290398,14.6435728]}}},"metallicFactor":0.00457144249,"roughnessFactor":0.574855864},"extensions":{"KHR_materials_specular":{}}}],"meshes":[{"primitives":[{"attributes":{"NORMAL":0,"POSITION":1,"TEXCOORD_0":2},"indices":3,"material":0}]}],"nodes":[{"mesh":0,"translation":[-25.7450256,-0.0344418213,-11.764493],"scale":[0.0113411816,0.0113411816,0.0113411816]}],"scenes":[{"name":"Sketchfab_Scene","nodes":[0]}],"scene":0}