{"asset":{"version":"2.0","generator":"gltfpack 1.0","extras":{"author":"BitHack (https://sketchfab.com/bithack)","license":"CC-BY-4.0 (http://creativecommons.org/licenses/by/4.0/)","source":"https://sketchfab.com/3d-models/lopoly-ps1-shipping-container-2170960a2133433d96d4dd6617e94c70","title":"LoPoly PS1 Shipping Container"}},"extensionsUsed":["KHR_mesh_quantization","EXT_meshopt_compression","KHR_texture_transform"],"extensionsRequired":["KHR_mesh_quantization","EXT_meshopt_compression"],"buffers":[{"uri":"scene.bin","byteLength":304},{"byteLength":456,"extensions":{"EXT_meshopt_compression":{"fallback":true}}}],"bufferViews":[{"buffer":1,"byteOffset":0,"byteLength":96,"byteStride":4,"target":34962,"extensions":{"EXT_meshopt_compression":{"buffer":0,"byteOffset":0,"byteLength":60,"byteStride":4,"mode":"ATTRIBUTES","filter":"OCTAHEDRAL","count":24}}},{"buffer":1,"byteOffset":96,"byteLength":192,"byteStride":8,"target":34962,"extensions":{"EXT_meshopt_compression":{"buffer":0,"byteOffset":60,"byteLength":96,"byteStride":8,"mode":"ATTRIBUTES","count":24}}},{"buffer":1,"byteOffset":288,"byteLength":96,"byteStride":4,"target":34962,"extensions":{"EXT_meshopt_compression":{"buffer":0,"byteOffset":156,"byteLength":115,"byteStride":4,"mode":"ATTRIBUTES","count":24}}},{"buffer":1,"byteOffset":384,"byteLength":72,"target":34963,"extensions":{"EXT_meshopt_compression":{"buffer":0,"byteOffset":272,"byteLength":29,"byteStride":2,"mode":"TRIANGLES","count":36}}}],"accessors":[{"bufferView":0,"byteOffset":0,"componentType":5120,"count":24,"type":"VEC3","normalized":true},{"bufferView":1,"byteOffset":0,"componentType":5123,"count":24,"type":"VEC3","min":[0,0,0],"max":[16383,8192,8192]},{"bufferView":2,"byteOffset":0,"componentType":5123,"count":24,"type":"VEC2","normalized":true},{"bufferView":3,"byteOffset":0,"componentType":5123,"count":36,"type":"SCALAR"}],"samplers":[{"magFilter":9728,"minFilter":9728}],"images":[{"uri":"Material_baseColor.png"}],"textures":[{"sampler":0,"source":0}],"materials":[{"name":"Material","pbrMetallicRoughness":{"baseColorTexture":{"index":0,"extensions":{"KHR_texture_transform":{"offset":[0.00195299997,0.00195299997],"scale":[15.9411526,15.9411526]}}},"metallicFactor":0,"roughnessFactor":0.788031816},"doubleSided":true}],"meshes":[{"primitives":[{"attributes":{"NORMAL":0,"POSITION":1,"TEXCOORD_0":2},"indices":3,"material":0}]}],"nodes":[{"mesh":0,"translation":[-2,-2.22044605e-16,-1],"scale":[0.000244155526,0.000244155526,0.000244155526]}],"scenes":[{"name":"Sketchfab_Scene","nodes":[0]}],"scene":0}