{"asset":{"version":"2.0","generator":"gltfpack 1.0","extras":{"author":"Willy Decarpentrie (https://sketchfab.com/skudgee)","license":"CC-BY-4.0 (http://creativecommons.org/licenses/by/4.0/)","source":"https://sketchfab.com/3d-models/container-fe8d44ca17e9474bb310478a60aa7a29","title":"Container"}},"extensionsUsed":["KHR_mesh_quantization","EXT_meshopt_compression","KHR_texture_transform","KHR_materials_pbrSpecularGlossiness"],"extensionsRequired":["KHR_mesh_quantization","EXT_meshopt_compression"],"buffers":[{"uri":"scene.bin","byteLength":24168},{"byteLength":62800,"extensions":{"EXT_meshopt_compression":{"fallback":true}}}],"bufferViews":[{"buffer":1,"byteOffset":0,"byteLength":10160,"byteStride":4,"target":34962,"extensions":{"EXT_meshopt_compression":{"buffer":0,"byteOffset":0,"byteLength":2763,"byteStride":4,"mode":"ATTRIBUTES","filter":"OCTAHEDRAL","count":2540}}},{"buffer":1,"byteOffset":10160,"byteLength":20320,"byteStride":8,"target":34962,"extensions":{"EXT_meshopt_compression":{"buffer":0,"byteOffset":2764,"byteLength":9883,"byteStride":8,"mode":"ATTRIBUTES","count":2540}}},{"buffer":1,"byteOffset":30480,"byteLength":10160,"byteStride":4,"target":34962,"extensions":{"EXT_meshopt_compression":{"buffer":0,"byteOffset":12648,"byteLength":3228,"byteStride":4,"mode":"ATTRIBUTES","filter":"OCTAHEDRAL","count":2540}}},{"buffer":1,"byteOffset":40640,"byteLength":10160,"byteStride":4,"target":34962,"extensions":{"EXT_meshopt_compression":{"buffer":0,"byteOffset":15876,"byteLength":6211,"byteStride":4,"mode":"ATTRIBUTES","count":2540}}},{"buffer":1,"byteOffset":50800,"byteLength":12000,"target":34963,"extensions":{"EXT_meshopt_compression":{"buffer":0,"byteOffset":22088,"byteLength":2078,"byteStride":2,"mode":"TRIANGLES","count":6000}}}],"accessors":[{"bufferView":0,"byteOffset":0,"componentType":5120,"count":2540,"type":"VEC3","normalized":true},{"bufferView":1,"byteOffset":0,"componentType":5123,"count":2540,"type":"VEC3","min":[0,0,0],"max":[16383,16280,15912]},{"bufferView":2,"byteOffset":0,"componentType":5120,"count":2540,"type":"VEC4","normalized":true},{"bufferView":3,"byteOffset":0,"componentType":5123,"count":2540,"type":"VEC2","normalized":true},{"bufferView":4,"byteOffset":0,"componentType":5123,"count":6000,"type":"SCALAR"}],"samplers":[{"magFilter":9729,"minFilter":9987}],"images":[{"uri":"Material__102_diffuse.jpg"},{"uri":"Material__102_specularGlossiness.png"},{"uri":"Material__102_normal.jpg"},{"uri":"Material__102_occlusion.png"}],"textures":[{"sampler":0,"source":0},{"sampler":0,"source":1},{"sampler":0,"source":2},{"sampler":0,"source":3}],"materials":[{"name":"Material__102","normalTexture":{"index":2,"extensions":{"KHR_texture_transform":{"offset":[0.00899999961,0.00970000029],"scale":[15.8020163,15.6851892]}}},"occlusionTexture":{"index":3,"extensions":{"KHR_texture_transform":{"offset":[0.00899999961,0.00970000029],"scale":[15.8020163,15.6851892]}}},"doubleSided":true,"extensions":{"KHR_materials_pbrSpecularGlossiness":{"diffuseTexture":{"index":0,"extensions":{"KHR_texture_transform":{"offset":[0.00899999961,0.00970000029],"scale":[15.8020163,15.6851892]}}},"specularGlossinessTexture":{"index":1,"extensions":{"KHR_texture_transform":{"offset":[0.00899999961,0.00970000029],"scale":[15.8020163,15.6851892]}}}}}}],"meshes":[{"primitives":[{"attributes":{"NORMAL":0,"POSITION":1,"TANGENT":2,"TEXCOORD_0":3},"indices":4,"material":0}]}],"nodes":[{"mesh":0,"translation":[-112.321198,-2.34200001,-109.116302],"scale":[0.0137146739,0.0137146739,0.0137146739]}],"scenes":[{"name":"Sketchfab_Scene","nodes":[0]}],"scene":0}